<svg width="40" height="41" viewBox="0 0 40 41" fill="none" xmlns="http://www.w3.org/2000/svg">
<rect y="0.5" width="40" height="40" rx="20" fill="#C73737"/>
<path d="M25.0887 17.8314C25.0973 17.9481 25.0973 18.0641 25.0973 18.1801C25.0973 21.7301 22.3953 25.8208 17.4573 25.8208C15.936 25.8208 14.5227 25.3801 13.3333 24.6148C13.5493 24.6394 13.7573 24.6481 13.982 24.6481C15.1907 24.651 16.3651 24.2469 17.316 23.5008C16.7556 23.4906 16.2124 23.3057 15.7622 22.9719C15.3119 22.6381 14.9772 22.172 14.8047 21.6388C14.9707 21.6634 15.1373 21.6801 15.312 21.6801C15.5527 21.6801 15.7947 21.6468 16.0193 21.5888C15.4112 21.466 14.8643 21.1363 14.4717 20.6559C14.0792 20.1755 13.8651 19.5739 13.866 18.9534V18.9201C14.224 19.1194 14.6393 19.2441 15.0793 19.2608C14.7107 19.0158 14.4085 18.6835 14.1996 18.2933C13.9906 17.9031 13.8815 17.4673 13.882 17.0248C13.882 16.5261 14.0147 16.0688 14.2473 15.6701C14.9221 16.5001 15.7637 17.1792 16.7176 17.6632C17.6714 18.1473 18.7164 18.4256 19.7847 18.4801C19.7433 18.2801 19.718 18.0728 19.718 17.8648C19.7178 17.5121 19.7872 17.1628 19.9221 16.8369C20.0569 16.5111 20.2547 16.215 20.5041 15.9656C20.7535 15.7162 21.0496 15.5184 21.3755 15.3835C21.7014 15.2486 22.0506 15.1793 22.4033 15.1794C23.1767 15.1794 23.8747 15.5034 24.3653 16.0274C24.9665 15.9112 25.543 15.6917 26.0693 15.3788C25.8689 15.9993 25.4492 16.5255 24.8887 16.8588C25.4219 16.798 25.943 16.6577 26.4347 16.4428C26.0674 16.9782 25.6123 17.4477 25.0887 17.8314V17.8314Z" fill="white"/>
</svg>
