<svg width="40" height="41" viewBox="0 0 40 41" fill="none" xmlns="http://www.w3.org/2000/svg">
<rect y="0.5" width="40" height="40" rx="20" fill="#C73737"/>
<path d="M19.9993 17.418C19.1818 17.418 18.3977 17.7427 17.8196 18.3209C17.2415 18.899 16.9167 19.6831 16.9167 20.5006C16.9167 21.3182 17.2415 22.1023 17.8196 22.6804C18.3977 23.2585 19.1818 23.5833 19.9993 23.5833C20.8169 23.5833 21.601 23.2585 22.1791 22.6804C22.7572 22.1023 23.082 21.3182 23.082 20.5006C23.082 19.6831 22.7572 18.899 22.1791 18.3209C21.601 17.7427 20.8169 17.418 19.9993 17.418V17.418ZM19.9993 22.5026C19.4682 22.5026 18.9588 22.2916 18.5832 21.9161C18.2077 21.5405 17.9967 21.0311 17.9967 20.5C17.9967 19.9688 18.2077 19.4594 18.5832 19.0839C18.9588 18.7083 19.4682 18.4973 19.9993 18.4973C20.5305 18.4973 21.0399 18.7083 21.4154 19.0839C21.791 19.4594 22.002 19.9688 22.002 20.5C22.002 21.0311 21.791 21.5405 21.4154 21.9161C21.0399 22.2916 20.5305 22.5026 19.9993 22.5026V22.5026Z" fill="white"/>
<path d="M23.204 18.0233C23.6009 18.0233 23.9227 17.7015 23.9227 17.3046C23.9227 16.9077 23.6009 16.5859 23.204 16.5859C22.8071 16.5859 22.4853 16.9077 22.4853 17.3046C22.4853 17.7015 22.8071 18.0233 23.204 18.0233Z" fill="white"/>
<path d="M25.6887 16.5741C25.5343 16.1755 25.2985 15.8136 24.9962 15.5115C24.694 15.2093 24.3319 14.9736 23.9333 14.8194C23.4669 14.6443 22.9741 14.5496 22.476 14.5394C21.834 14.5114 21.6307 14.5034 20.0027 14.5034C18.3747 14.5034 18.166 14.5034 17.5293 14.5394C17.0316 14.5491 16.5392 14.6438 16.0733 14.8194C15.6746 14.9734 15.3125 15.2091 15.0102 15.5112C14.7079 15.8134 14.4721 16.1754 14.318 16.5741C14.1429 17.0405 14.0484 17.5333 14.0387 18.0314C14.01 18.6728 14.0013 18.8761 14.0013 20.5048C14.0013 22.1328 14.0013 22.3401 14.0387 22.9781C14.0487 23.4768 14.1427 23.9688 14.318 24.4361C14.4726 24.8346 14.7086 25.1965 15.011 25.4986C15.3133 25.8007 15.6754 26.0365 16.074 26.1907C16.539 26.3729 17.0316 26.4743 17.5307 26.4907C18.1727 26.5187 18.376 26.5274 20.004 26.5274C21.632 26.5274 21.8407 26.5274 22.4773 26.4907C22.9754 26.4806 23.4681 26.3862 23.9347 26.2114C24.3332 26.0569 24.6951 25.821 24.9973 25.5187C25.2995 25.2165 25.5355 24.8546 25.69 24.4561C25.8653 23.9894 25.9593 23.4974 25.9693 22.9988C25.998 22.3574 26.0067 22.1541 26.0067 20.5254C26.0067 18.8968 26.0067 18.6901 25.9693 18.0521C25.9616 17.5469 25.8666 17.0469 25.6887 16.5741V16.5741ZM24.8767 22.9288C24.8724 23.313 24.8022 23.6936 24.6693 24.0541C24.5692 24.3133 24.4159 24.5488 24.2194 24.7452C24.0228 24.9417 23.7873 25.0948 23.528 25.1947C23.1715 25.327 22.7949 25.3972 22.4147 25.4021C21.7813 25.4314 21.6027 25.4388 19.9787 25.4388C18.3533 25.4388 18.1873 25.4388 17.542 25.4021C17.1619 25.3974 16.7855 25.3273 16.4293 25.1947C16.1691 25.0954 15.9327 24.9425 15.7353 24.7461C15.5378 24.5496 15.3839 24.3138 15.2833 24.0541C15.1523 23.6975 15.0822 23.3213 15.076 22.9414C15.0473 22.3081 15.0407 22.1294 15.0407 20.5054C15.0407 18.8808 15.0407 18.7148 15.076 18.0688C15.0803 17.6848 15.1504 17.3044 15.2833 16.9441C15.4867 16.4181 15.9033 16.0041 16.4293 15.8028C16.7857 15.6708 17.162 15.6007 17.542 15.5954C18.176 15.5668 18.354 15.5588 19.9787 15.5588C21.6033 15.5588 21.77 15.5588 22.4147 15.5954C22.7949 15.6 23.1716 15.6701 23.528 15.8028C23.7873 15.9029 24.0228 16.0562 24.2193 16.2528C24.4159 16.4493 24.5691 16.6848 24.6693 16.9441C24.8004 17.3007 24.8705 17.6769 24.8767 18.0568C24.9053 18.6908 24.9127 18.8688 24.9127 20.4934C24.9127 22.1174 24.9127 22.2921 24.884 22.9294H24.8767V22.9288Z" fill="white"/>
</svg>
