<svg width="40" height="41" viewBox="0 0 40 41" fill="none" xmlns="http://www.w3.org/2000/svg">
<rect y="0.5" width="40" height="40" rx="20" fill="#C73737"/>
<path d="M15.322 17.2979C16.1276 17.2979 16.7807 16.6449 16.7807 15.8393C16.7807 15.0337 16.1276 14.3806 15.322 14.3806C14.5164 14.3806 13.8633 15.0337 13.8633 15.8393C13.8633 16.6449 14.5164 17.2979 15.322 17.2979Z" fill="white"/>
<path d="M18.158 18.4034V26.496H20.6707V22.494C20.6707 21.438 20.8693 20.4154 22.1787 20.4154C23.47 20.4154 23.486 21.6227 23.486 22.5607V26.4967H26V22.0587C26 19.8787 25.5307 18.2034 22.9827 18.2034C21.7593 18.2034 20.9393 18.8747 20.604 19.51H20.57V18.4034H18.158V18.4034ZM14.0633 18.4034H16.58V26.496H14.0633V18.4034Z" fill="white"/>
</svg>
