<?xml version="1.0" standalone="no"?>
<!DOCTYPE svg PUBLIC "-//W3C//DTD SVG 20010904//EN"
 "http://www.w3.org/TR/2001/REC-SVG-20010904/DTD/svg10.dtd">
<svg version="1.0" xmlns="http://www.w3.org/2000/svg"
 width="1440.000000pt" height="1440.000000pt" viewBox="0 0 1440.000000 1440.000000"
 preserveAspectRatio="xMidYMid meet">
<metadata>
Created by potrace 1.14, written by Peter Selinger 2001-2017
</metadata>
<g transform="translate(0.000000,1440.000000) scale(0.100000,-0.100000)"
fill="#000000" stroke="none">
<path d="M7415 11580 c-5 -8 -283 -268 -475 -444 -30 -28 -113 -105 -185 -171
-71 -66 -163 -151 -205 -189 -41 -39 -111 -104 -156 -145 -115 -109 -175 -164
-399 -371 -268 -247 -306 -283 -394 -368 -95 -92 -154 -101 469 74 107 30 251
71 320 91 69 19 154 43 190 53 88 24 546 155 645 185 44 14 148 42 230 64 83
22 170 46 195 54 47 15 121 37 530 157 135 39 256 75 269 79 14 4 26 12 28 17
2 6 -124 122 -279 260 -155 137 -363 321 -463 409 -295 262 -305 269 -320 245z"/>
<path d="M8375 10355 c-159 -40 -432 -107 -605 -149 -295 -72 -418 -104 -1105
-291 -148 -41 -463 -126 -700 -190 -236 -64 -494 -134 -573 -155 l-142 -39
-107 -88 c-58 -48 -131 -108 -162 -133 -159 -130 -315 -258 -701 -577 -86 -70
-171 -140 -190 -155 -19 -15 -32 -30 -28 -33 3 -4 226 30 495 74 268 44 886
146 1373 226 865 142 1485 247 1685 285 118 23 1980 397 2013 405 27 7 29 29
4 47 -15 10 -170 151 -262 238 -8 8 -69 64 -135 124 -66 60 -151 139 -190 175
-285 268 -337 312 -367 310 -7 -1 -143 -34 -303 -74z"/>
<path d="M9345 9269 c-286 -59 -619 -129 -740 -154 -232 -48 -731 -153 -1000
-210 -88 -18 -252 -48 -365 -65 -197 -30 -340 -53 -1420 -229 -267 -44 -669
-109 -895 -146 -1069 -173 -1047 -169 -1115 -201 -36 -17 -107 -66 -160 -111
-52 -45 -149 -127 -215 -183 -66 -56 -241 -204 -390 -329 -441 -370 -470 -394
-515 -433 l-44 -38 41 0 c23 0 283 7 579 15 602 17 2541 66 3514 90 701 17
835 24 960 54 81 19 395 91 1180 271 929 213 1104 253 1220 280 69 17 332 77
585 135 727 167 680 155 658 175 -10 9 -108 100 -218 200 -110 101 -234 215
-276 254 -41 39 -100 94 -130 121 -218 200 -395 363 -529 488 -121 113 -139
126 -170 126 -19 -1 -269 -50 -555 -110z"/>
<path d="M10725 7839 c-341 -82 -712 -171 -825 -199 -113 -27 -293 -70 -400
-95 -107 -26 -314 -75 -460 -110 -146 -35 -362 -87 -480 -115 -268 -64 -523
-125 -795 -191 -353 -85 -376 -89 -532 -89 -79 0 -506 -9 -950 -20 -445 -11
-1368 -33 -2053 -50 -1816 -44 -1986 -49 -2015 -60 -14 -5 -75 -56 -137 -112
-62 -57 -189 -172 -282 -257 -215 -193 -211 -189 -204 -196 3 -3 82 -37 174
-74 93 -38 286 -116 429 -174 630 -255 895 -362 1105 -447 124 -51 340 -138
480 -195 140 -57 316 -128 390 -158 74 -30 254 -103 400 -162 146 -59 337
-136 425 -172 88 -36 277 -112 420 -170 315 -127 667 -270 910 -368 99 -40
309 -125 466 -188 157 -64 322 -131 365 -150 43 -19 124 -51 180 -72 l101 -37
74 30 c41 16 209 87 374 157 165 70 363 154 440 186 77 33 165 71 195 84 30
14 253 108 495 211 502 212 983 416 1130 479 55 24 159 68 230 98 206 87 851
361 1065 452 107 45 314 133 460 195 1204 511 1349 573 1344 582 -5 7 -526
443 -1189 993 -202 168 -186 154 -315 262 -317 265 -341 283 -368 282 -15 0
-306 -68 -647 -150z"/>
</g>
</svg>
